<svg width="29" height="34" viewBox="0 0 29 34" fill="none" xmlns="http://www.w3.org/2000/svg">
    <path d="M0.548437 9.29844L9.29844 0.548438C9.47269 0.374374 9.67954 0.236347 9.90716 0.142245C10.1348 0.048142 10.3787 -0.000193098 10.625 5.79749e-07H25.625C26.4538 5.79749e-07 27.2487 0.329241 27.8347 0.915292C28.4208 1.50134 28.75 2.2962 28.75 3.125V30.625C28.75 31.4538 28.4208 32.2487 27.8347 32.8347C27.2487 33.4208 26.4538 33.75 25.625 33.75H3.125C2.2962 33.75 1.50134 33.4208 0.915291 32.8347C0.32924 32.2487 0 31.4538 0 30.625V10.625C-0.000193678 10.3787 0.0481426 10.1348 0.142245 9.90716C0.236348 9.67954 0.374372 9.4727 0.548437 9.29844ZM9.375 5.78125L5.78125 9.375H9.375V5.78125ZM25 30V3.75H13.125V11.25C13.125 11.7473 12.9275 12.2242 12.5758 12.5758C12.2242 12.9275 11.7473 13.125 11.25 13.125H3.75V30H25ZM8.75 20.625C8.75 21.1223 8.94755 21.5992 9.29918 21.9508C9.65081 22.3025 10.1277 22.5 10.625 22.5H12.5V24.375C12.5 24.8723 12.6975 25.3492 13.0492 25.7008C13.4008 26.0525 13.8777 26.25 14.375 26.25C14.8723 26.25 15.3492 26.0525 15.7008 25.7008C16.0525 25.3492 16.25 24.8723 16.25 24.375V22.5H18.125C18.6223 22.5 19.0992 22.3025 19.4508 21.9508C19.8025 21.5992 20 21.1223 20 20.625C20 20.1277 19.8025 19.6508 19.4508 19.2992C19.0992 18.9475 18.6223 18.75 18.125 18.75H16.25V16.875C16.25 16.3777 16.0525 15.9008 15.7008 15.5492C15.3492 15.1975 14.8723 15 14.375 15C13.8777 15 13.4008 15.1975 13.0492 15.5492C12.6975 15.9008 12.5 16.3777 12.5 16.875V18.75H10.625C10.1277 18.75 9.65081 18.9475 9.29918 19.2992C8.94755 19.6508 8.75 20.1277 8.75 20.625Z" fill="black"/>
</svg>
