<svg width="13" height="23" viewBox="0 0 13 23" fill="none" xmlns="http://www.w3.org/2000/svg">
    <path d="M10.4412 0.442588L0.441218 10.4426C0.301378 10.5819 0.190423 10.7475 0.114715 10.9299C0.039007 11.1122 3.3836e-05 11.3077 3.3836e-05 11.5051C3.3836e-05 11.7025 0.039007 11.898 0.114715 12.0803C0.190423 12.2626 0.301378 12.4282 0.441218 12.5676L10.4412 22.5676C10.723 22.8494 11.1052 23.0077 11.5037 23.0077C11.9022 23.0077 12.2844 22.8494 12.5662 22.5676C12.848 22.2858 13.0063 21.9036 13.0063 21.5051C13.0063 21.1066 12.848 20.7244 12.5662 20.4426L3.62747 11.5038L12.5675 2.56509C12.8493 2.2833 13.0076 1.9011 13.0076 1.50259C13.0076 1.10407 12.8493 0.721881 12.5675 0.440088C12.2857 0.158296 11.9035 -1.59445e-05 11.505 -1.59445e-05C11.1065 -1.59445e-05 10.7243 0.158296 10.4425 0.440088L10.4412 0.442588Z" fill="#5BB349"/>
</svg>
