<svg width="23" height="23" viewBox="0 0 23 23" fill="none" xmlns="http://www.w3.org/2000/svg">
    <path d="M8 0H2.5C1.83696 0 1.20107 0.263392 0.732233 0.732233C0.263392 1.20107 0 1.83696 0 2.5V8C0 8.66304 0.263392 9.29893 0.732233 9.76777C1.20107 10.2366 1.83696 10.5 2.5 10.5H8C8.66304 10.5 9.29893 10.2366 9.76777 9.76777C10.2366 9.29893 10.5 8.66304 10.5 8V2.5C10.5 1.83696 10.2366 1.20107 9.76777 0.732233C9.29893 0.263392 8.66304 0 8 0ZM7.5 7.5H3V3H7.5V7.5ZM20.5 0H15C14.337 0 13.7011 0.263392 13.2322 0.732233C12.7634 1.20107 12.5 1.83696 12.5 2.5V8C12.5 8.66304 12.7634 9.29893 13.2322 9.76777C13.7011 10.2366 14.337 10.5 15 10.5H20.5C21.163 10.5 21.7989 10.2366 22.2678 9.76777C22.7366 9.29893 23 8.66304 23 8V2.5C23 1.83696 22.7366 1.20107 22.2678 0.732233C21.7989 0.263392 21.163 0 20.5 0ZM20 7.5H15.5V3H20V7.5ZM8 12.5H2.5C1.83696 12.5 1.20107 12.7634 0.732233 13.2322C0.263392 13.7011 0 14.337 0 15V20.5C0 21.163 0.263392 21.7989 0.732233 22.2678C1.20107 22.7366 1.83696 23 2.5 23H8C8.66304 23 9.29893 22.7366 9.76777 22.2678C10.2366 21.7989 10.5 21.163 10.5 20.5V15C10.5 14.337 10.2366 13.7011 9.76777 13.2322C9.29893 12.7634 8.66304 12.5 8 12.5ZM7.5 20H3V15.5H7.5V20ZM20.5 12.5H15C14.337 12.5 13.7011 12.7634 13.2322 13.2322C12.7634 13.7011 12.5 14.337 12.5 15V20.5C12.5 21.163 12.7634 21.7989 13.2322 22.2678C13.7011 22.7366 14.337 23 15 23H20.5C21.163 23 21.7989 22.7366 22.2678 22.2678C22.7366 21.7989 23 21.163 23 20.5V15C23 14.337 22.7366 13.7011 22.2678 13.2322C21.7989 12.7634 21.163 12.5 20.5 12.5ZM20 20H15.5V15.5H20V20Z" fill="white"/>
</svg>
