<svg width="51" height="51" viewBox="0 0 51 51" fill="none" xmlns="http://www.w3.org/2000/svg">
    <path d="M25.3125 0C20.3062 0 15.4123 1.48455 11.2496 4.26593C7.08702 7.0473 3.84265 11.0006 1.92681 15.6258C0.0109676 20.2511 -0.490304 25.3406 0.486384 30.2507C1.46307 35.1609 3.87385 39.6711 7.41387 43.2111C10.9539 46.7512 15.4641 49.1619 20.3743 50.1386C25.2844 51.1153 30.3739 50.614 34.9992 48.6982C39.6244 46.7824 43.5777 43.538 46.3591 39.3754C49.1405 35.2128 50.625 30.3188 50.625 25.3125C50.6176 18.6015 47.9483 12.1675 43.2029 7.42208C38.4575 2.67668 32.0235 0.00744427 25.3125 0ZM13.9617 41.3836C15.2674 39.5983 16.9757 38.1462 18.948 37.1452C20.9202 36.1442 23.1008 35.6225 25.3125 35.6225C27.5243 35.6225 29.7048 36.1442 31.6771 37.1452C33.6493 38.1462 35.3576 39.5983 36.6633 41.3836C33.3459 43.7362 29.3794 44.9999 25.3125 44.9999C21.2456 44.9999 17.2791 43.7362 13.9617 41.3836ZM18.75 23.4375C18.75 22.1396 19.1349 20.8708 19.856 19.7916C20.5771 18.7124 21.602 17.8712 22.8011 17.3745C24.0003 16.8778 25.3198 16.7479 26.5928 17.0011C27.8658 17.2543 29.0351 17.8793 29.9529 18.7971C30.8707 19.7149 31.4957 20.8842 31.7489 22.1572C32.0021 23.4302 31.8722 24.7497 31.3755 25.9489C30.8788 27.148 30.0376 28.1729 28.9584 28.894C27.8792 29.6151 26.6104 30 25.3125 30C23.572 30 21.9028 29.3086 20.6721 28.0779C19.4414 26.8472 18.75 25.178 18.75 23.4375ZM40.7813 37.4859C38.9583 35.1673 36.6348 33.2909 33.9844 31.9969C35.6735 30.2864 36.819 28.1146 37.2769 25.7546C37.7348 23.3947 37.4845 20.9521 36.5576 18.734C35.6307 16.516 34.0685 14.6216 32.0676 13.2892C30.0667 11.9568 27.7164 11.2459 25.3125 11.2459C22.9086 11.2459 20.5583 11.9568 18.5574 13.2892C16.5565 14.6216 14.9944 16.516 14.0674 18.734C13.1405 20.9521 12.8903 23.3947 13.3481 25.7546C13.806 28.1146 14.9515 30.2864 16.6406 31.9969C13.9902 33.2909 11.6667 35.1673 9.84376 37.4859C7.55402 34.5833 6.12785 31.0946 5.72849 27.4192C5.32913 23.7438 5.97274 20.0303 7.58563 16.7036C9.19851 13.377 11.7155 10.5717 14.8485 8.60886C17.9814 6.64607 21.6038 5.60509 25.3008 5.60509C28.9978 5.60509 32.6201 6.64607 35.7531 8.60886C38.8861 10.5717 41.4031 13.377 43.016 16.7036C44.6288 20.0303 45.2724 23.7438 44.8731 27.4192C44.4737 31.0946 43.0476 34.5833 40.7578 37.4859H40.7813Z" fill="white"/>
</svg>
