<svg width="32" height="32" viewBox="0 0 32 32" fill="none" xmlns="http://www.w3.org/2000/svg">
    <rect x="1" y="1" width="30" height="30" rx="15" stroke="#E7BE00" stroke-width="2"/>
    <path d="M23.5459 10.046C23.7573 9.83467 23.876 9.54803 23.876 9.24914C23.876 8.95026 23.7573 8.66361 23.5459 8.45227C23.3346 8.24092 23.0479 8.12219 22.7491 8.12219C22.4502 8.12219 22.1635 8.24092 21.9522 8.45227L16 14.4063L10.0459 8.45414C9.83458 8.2428 9.54794 8.12407 9.24905 8.12407C8.95017 8.12407 8.66352 8.2428 8.45218 8.45414C8.24083 8.66549 8.1221 8.95213 8.1221 9.25102C8.1221 9.5499 8.24083 9.83655 8.45218 10.0479L14.4062 16.0001L8.45405 21.9541C8.24271 22.1655 8.12398 22.4521 8.12398 22.751C8.12398 23.0499 8.24271 23.3365 8.45405 23.5479C8.6654 23.7592 8.95204 23.878 9.25093 23.878C9.54981 23.878 9.83646 23.7592 10.0478 23.5479L16 17.5938L21.9541 23.5488C22.1654 23.7602 22.452 23.8789 22.7509 23.8789C23.0498 23.8789 23.3365 23.7602 23.5478 23.5488C23.7591 23.3375 23.8779 23.0508 23.8779 22.752C23.8779 22.4531 23.7591 22.1664 23.5478 21.9551L17.5937 16.0001L23.5459 10.046Z" fill="#E7BE00"/>
</svg>
