<svg width="24" height="24" viewBox="0 0 24 24" fill="none" xmlns="http://www.w3.org/2000/svg">
    <path d="M12.375 13.125H3.75C3.45163 13.125 3.16548 13.0065 2.95451 12.7955C2.74353 12.5845 2.625 12.2984 2.625 12C2.625 11.7016 2.74353 11.4155 2.95451 11.2045C3.16548 10.9935 3.45163 10.875 3.75 10.875H12.375C12.6734 10.875 12.9595 10.9935 13.1705 11.2045C13.3815 11.4155 13.5 11.7016 13.5 12C13.5 12.2984 13.3815 12.5845 13.1705 12.7955C12.9595 13.0065 12.6734 13.125 12.375 13.125ZM6 18.75C6 18.4516 5.88147 18.1655 5.67049 17.9545C5.45952 17.7435 5.17337 17.625 4.875 17.625H3.75C3.45163 17.625 3.16548 17.7435 2.95451 17.9545C2.74353 18.1655 2.625 18.4516 2.625 18.75C2.625 19.0484 2.74353 19.3345 2.95451 19.5455C3.16548 19.7565 3.45163 19.875 3.75 19.875H4.875C5.17337 19.875 5.45952 19.7565 5.67049 19.5455C5.88147 19.3345 6 19.0484 6 18.75ZM9.75 21V19.875H20.25C20.5484 19.875 20.8345 19.7565 21.0455 19.5455C21.2565 19.3345 21.375 19.0484 21.375 18.75C21.375 18.4516 21.2565 18.1655 21.0455 17.9545C20.8345 17.7435 20.5484 17.625 20.25 17.625H9.75V16.5C9.75 16.2016 9.63147 15.9155 9.42049 15.7045C9.20952 15.4935 8.92337 15.375 8.625 15.375C8.32663 15.375 8.04048 15.4935 7.82951 15.7045C7.61853 15.9155 7.5 16.2016 7.5 16.5V21C7.5 21.2984 7.61853 21.5845 7.82951 21.7955C8.04048 22.0065 8.32663 22.125 8.625 22.125C8.92337 22.125 9.20952 22.0065 9.42049 21.7955C9.63147 21.5845 9.75 21.2984 9.75 21ZM9 5.25C9 4.95163 8.88147 4.66548 8.67049 4.4545C8.45952 4.24353 8.17337 4.125 7.875 4.125H3.75C3.45163 4.125 3.16548 4.24353 2.95451 4.4545C2.74353 4.66548 2.625 4.95163 2.625 5.25C2.625 5.54837 2.74353 5.83452 2.95451 6.0455C3.16548 6.25647 3.45163 6.375 3.75 6.375H7.875C8.17337 6.375 8.45952 6.25647 8.67049 6.0455C8.88147 5.83452 9 5.54837 9 5.25ZM12.75 7.5V6.375H20.25C20.5484 6.375 20.8345 6.25647 21.0455 6.0455C21.2565 5.83452 21.375 5.54837 21.375 5.25C21.375 4.95163 21.2565 4.66548 21.0455 4.4545C20.8345 4.24353 20.5484 4.125 20.25 4.125H12.75V3C12.75 2.70163 12.6315 2.41548 12.4205 2.2045C12.2095 1.99353 11.9234 1.875 11.625 1.875C11.3266 1.875 11.0405 1.99353 10.8295 2.2045C10.6185 2.41548 10.5 2.70163 10.5 3V7.5C10.5 7.79837 10.6185 8.08452 10.8295 8.2955C11.0405 8.50647 11.3266 8.625 11.625 8.625C11.9234 8.625 12.2095 8.50647 12.4205 8.2955C12.6315 8.08452 12.75 7.79837 12.75 7.5ZM17.25 14.25V13.125H20.25C20.5484 13.125 20.8345 13.0065 21.0455 12.7955C21.2565 12.5845 21.375 12.2984 21.375 12C21.375 11.7016 21.2565 11.4155 21.0455 11.2045C20.8345 10.9935 20.5484 10.875 20.25 10.875H17.25V9.75C17.25 9.45163 17.1315 9.16548 16.9205 8.9545C16.7095 8.74353 16.4234 8.625 16.125 8.625C15.8266 8.625 15.5405 8.74353 15.3295 8.9545C15.1185 9.16548 15 9.45163 15 9.75V14.25C15 14.5484 15.1185 14.8345 15.3295 15.0455C15.5405 15.2565 15.8266 15.375 16.125 15.375C16.4234 15.375 16.7095 15.2565 16.9205 15.0455C17.1315 14.8345 17.25 14.5484 17.25 14.25Z" fill="white"/>
</svg>
