<svg width="56" height="56" viewBox="0 0 56 56" fill="none" xmlns="http://www.w3.org/2000/svg">
    <path d="M45.5 16.625H39.375V12.25C39.375 9.23316 38.1766 6.33989 36.0433 4.20666C33.9101 2.07343 31.0168 0.875 28 0.875C24.9832 0.875 22.0899 2.07343 19.9567 4.20666C17.8234 6.33989 16.625 9.23316 16.625 12.25V16.625H10.5C9.33968 16.625 8.22688 17.0859 7.40641 17.9064C6.58594 18.7269 6.125 19.8397 6.125 21V45.5C6.125 46.6603 6.58594 47.7731 7.40641 48.5936C8.22688 49.4141 9.33968 49.875 10.5 49.875H45.5C46.6603 49.875 47.7731 49.4141 48.5936 48.5936C49.4141 47.7731 49.875 46.6603 49.875 45.5V21C49.875 19.8397 49.4141 18.7269 48.5936 17.9064C47.7731 17.0859 46.6603 16.625 45.5 16.625ZM21.875 12.25C21.875 10.6255 22.5203 9.06763 23.669 7.91897C24.8176 6.77031 26.3755 6.125 28 6.125C29.6245 6.125 31.1824 6.77031 32.331 7.91897C33.4797 9.06763 34.125 10.6255 34.125 12.25V16.625H21.875V12.25ZM44.625 44.625H11.375V21.875H44.625V44.625Z" fill="white"/>
</svg>
