<svg width="32" height="32" viewBox="0 0 32 32" fill="none" xmlns="http://www.w3.org/2000/svg">
    <path d="M0 19.3765V29.3765C0 29.8738 0.197545 30.3507 0.549176 30.7023C0.900806 31.0539 1.37772 31.2515 1.875 31.2515H29.375C29.8723 31.2515 30.3492 31.0539 30.7008 30.7023C31.0525 30.3507 31.25 29.8738 31.25 29.3765V19.3765C31.25 18.8792 31.0525 18.4023 30.7008 18.0507C30.3492 17.699 29.8723 17.5015 29.375 17.5015C28.8777 17.5015 28.4008 17.699 28.0492 18.0507C27.6975 18.4023 27.5 18.8792 27.5 19.3765V27.5015H3.75V19.3765C3.75 18.8792 3.55245 18.4023 3.20082 18.0507C2.84919 17.699 2.37228 17.5015 1.875 17.5015C1.37772 17.5015 0.900806 17.699 0.549176 18.0507C0.197545 18.4023 0 18.8792 0 19.3765ZM20.5484 9.45304L17.5 6.40773V19.3765C17.5 19.8738 17.3025 20.3507 16.9508 20.7023C16.5992 21.0539 16.1223 21.2515 15.625 21.2515C15.1277 21.2515 14.6508 21.0539 14.2992 20.7023C13.9475 20.3507 13.75 19.8738 13.75 19.3765V6.40773L10.7016 9.45773C10.5272 9.63214 10.3201 9.77049 10.0922 9.86488C9.86433 9.95927 9.62009 10.0079 9.37344 10.0079C9.12678 10.0079 8.88254 9.95927 8.65466 9.86488C8.42678 9.77049 8.21973 9.63214 8.04531 9.45773C7.8709 9.28332 7.73255 9.07626 7.63816 8.84838C7.54377 8.6205 7.49518 8.37626 7.49518 8.1296C7.49518 7.88295 7.54377 7.63871 7.63816 7.41083C7.73255 7.18295 7.8709 6.97589 8.04531 6.80148L14.2953 0.551479C14.4695 0.376679 14.6765 0.237984 14.9044 0.143349C15.1323 0.0487141 15.3767 0 15.6234 0C15.8702 0 16.1146 0.0487141 16.3425 0.143349C16.5704 0.237984 16.7774 0.376679 16.9516 0.551479L23.2016 6.80148C23.376 6.97589 23.5143 7.18295 23.6087 7.41083C23.7031 7.63871 23.7517 7.88295 23.7517 8.1296C23.7517 8.62775 23.5538 9.10549 23.2016 9.45773C22.8493 9.80997 22.3716 10.0079 21.8734 10.0079C21.3753 10.0079 20.8976 9.80997 20.5453 9.45773L20.5484 9.45304Z" fill="white"/>
</svg>
