<svg width="34" height="37" viewBox="0 0 34 37" fill="none" xmlns="http://www.w3.org/2000/svg">
    <path d="M1.625 7.91208L15.375 0.385514C15.8345 0.132614 16.3505 0 16.875 0C17.3995 0 17.9155 0.132614 18.375 0.385514L32.125 7.91208C32.617 8.18128 33.0275 8.57792 33.3134 9.06041C33.5993 9.54289 33.7501 10.0934 33.75 10.6543V25.5949C33.7501 26.1557 33.5993 26.7063 33.3134 27.1887C33.0275 27.6712 32.617 28.0679 32.125 28.3371L18.375 35.8636C17.9156 36.1168 17.3996 36.2496 16.875 36.2496C16.3504 36.2496 15.8344 36.1168 15.375 35.8636L1.625 28.3371C1.13299 28.0679 0.722506 27.6712 0.43659 27.1887C0.150674 26.7063 -0.000129832 26.1557 0 25.5949V10.6543C-0.000129832 10.0934 0.150674 9.54289 0.43659 9.06041C0.722506 8.57792 1.13299 8.18128 1.625 7.91208ZM16.875 3.83864L5.625 9.99958L8.97344 11.8324L20.2234 5.67301L16.875 3.83864ZM16.875 16.1558L28.125 9.99958L24.1313 7.81208L12.8813 13.9699L16.875 16.1558ZM30 13.248L18.75 19.4043V31.3839L30 25.2246V13.248ZM15 31.3839V19.4043L11.25 17.3527V21.8746C11.25 22.3719 11.0525 22.8488 10.7008 23.2004C10.3492 23.552 9.87228 23.7496 9.375 23.7496C8.87772 23.7496 8.40081 23.552 8.04918 23.2004C7.69755 22.8488 7.5 22.3719 7.5 21.8746V15.2996L3.75 13.248V25.2246L15 31.3839Z" fill="white"/>
</svg>
