<svg width="58" height="58" viewBox="0 0 58 58" fill="none" xmlns="http://www.w3.org/2000/svg">
    <path d="M15.2383 21.9453H34.8729V25.1267H15.2383V21.9453Z" fill="#BFBFBF"/>
    <path d="M15.2383 29.6523H34.8729V32.8334H15.2383V29.6523Z" fill="#BFBFBF"/>
    <path d="M56.1602 14.957C56.1602 9.2988 51.557 4.69531 45.8988 4.69531C41.7433 4.69531 38.1564 7.1781 36.5448 10.7382H8.1257C4.62969 10.7382 1.78516 13.583 1.78516 17.0787V37.4378C1.78516 40.9341 4.62969 43.779 8.1257 43.779H9.84151V52.8858L23.4439 43.779H41.1533C44.6499 43.779 47.4945 40.9341 47.4945 37.4378V25.0942C52.397 24.3253 56.1602 20.0722 56.1602 14.957ZM41.1533 40.5973H22.4775L13.0226 46.9272V40.5973H8.1257C6.38367 40.5973 4.96621 39.1802 4.96621 37.4378V17.0787C4.96621 15.337 6.38367 13.9199 8.1257 13.9199H35.6895C35.655 14.2607 35.6371 14.6069 35.6371 14.957C35.6371 20.0756 39.4049 24.3312 44.3128 25.0959V37.4378C44.3128 39.1802 42.8953 40.5973 41.1533 40.5973ZM45.8988 22.037C41.9949 22.037 38.8188 18.8609 38.8188 14.957C38.8188 11.0528 41.9949 7.87637 45.8988 7.87637C49.8027 7.87637 52.9791 11.0528 52.9791 14.957C52.9791 18.8609 49.8027 22.037 45.8988 22.037Z" fill="#BFBFBF"/>
    <path d="M44.3086 11.1914H47.49V18.7204H44.3086V11.1914Z" fill="#BFBFBF"/>
</svg>
