<svg width="19" height="21" viewBox="0 0 19 21" fill="none" xmlns="http://www.w3.org/2000/svg">
    <path d="M18.4952 13.6809C17.6815 12.2812 17.2493 10.2722 17.2493 7.875C17.2493 5.78642 16.4196 3.78338 14.9428 2.30653C13.4659 0.829685 11.4629 0 9.37429 0C7.28571 0 5.28268 0.829685 3.80583 2.30653C2.32898 3.78338 1.49929 5.78642 1.49929 7.875C1.49929 10.2731 1.06898 12.2812 0.255231 13.6809C0.0891824 13.9664 0.00116335 14.2906 1.14531e-05 14.6208C-0.00114044 14.9511 0.0846154 15.2759 0.248669 15.5625C0.411684 15.8493 0.648291 16.0874 0.934063 16.2522C1.21984 16.417 1.54442 16.5025 1.87429 16.5H5.26617C5.35919 17.5253 5.83224 18.4787 6.59238 19.173C7.35252 19.8673 8.3448 20.2523 9.37429 20.2523C10.4038 20.2523 11.3961 19.8673 12.1562 19.173C12.9163 18.4787 13.3894 17.5253 13.4824 16.5H16.8743C17.2037 16.502 17.5277 16.4163 17.8129 16.2515C18.0982 16.0867 18.3343 15.8489 18.4971 15.5625C18.6619 15.2763 18.7484 14.9517 18.7481 14.6215C18.7478 14.2912 18.6606 13.9668 18.4952 13.6809ZM9.37429 18C8.94205 18.0001 8.52305 17.8508 8.18821 17.5775C7.85336 17.3041 7.62324 16.9235 7.53679 16.5H11.2118C11.1253 16.9235 10.8952 17.3041 10.5604 17.5775C10.2255 17.8508 9.80654 18.0001 9.37429 18ZM2.49867 14.25C3.32836 12.5625 3.74929 10.4194 3.74929 7.875C3.74929 6.38316 4.34193 4.95242 5.39682 3.89752C6.45171 2.84263 7.88245 2.25 9.37429 2.25C10.8661 2.25 12.2969 2.84263 13.3518 3.89752C14.4067 4.95242 14.9993 6.38316 14.9993 7.875C14.9993 10.4184 15.4193 12.5625 16.249 14.25H2.49867Z" fill="white"/>
</svg>
