<svg width="27" height="29" viewBox="0 0 27 29" fill="none" xmlns="http://www.w3.org/2000/svg">
    <path d="M25.7 6.32966L14.7 0.308411C14.3324 0.106091 13.9196 0 13.5 0C13.0804 0 12.6676 0.106091 12.3 0.308411L1.3 6.32966C0.906397 6.54502 0.578004 6.86234 0.349271 7.24833C0.120538 7.63431 -0.000103799 8.07474 6.701e-08 8.52341V20.4759C-0.000103799 20.9246 0.120538 21.365 0.349271 21.751C0.578004 22.137 0.906397 22.4543 1.3 22.6697L12.3 28.6909C12.6675 28.8935 13.0804 28.9997 13.5 28.9997C13.9196 28.9997 14.3325 28.8935 14.7 28.6909L25.7 22.6697C26.0936 22.4543 26.422 22.137 26.6507 21.751C26.8795 21.365 27.0001 20.9246 27 20.4759V8.52341C27.0001 8.07474 26.8795 7.63431 26.6507 7.24833C26.422 6.86234 26.0936 6.54502 25.7 6.32966ZM13.5 3.07091L22.5 7.99966L19.8213 9.46591L10.8212 4.53841L13.5 3.07091ZM13.5 12.9247L4.5 7.99966L7.695 6.24966L16.695 11.1759L13.5 12.9247ZM3 10.5984L12 15.5234V25.1072L3 20.1797V10.5984ZM15 25.1072V15.5234L18 13.8822V17.4997C18 17.8975 18.158 18.279 18.4393 18.5603C18.7206 18.8416 19.1022 18.9997 19.5 18.9997C19.8978 18.9997 20.2794 18.8416 20.5607 18.5603C20.842 18.279 21 17.8975 21 17.4997V12.2397L24 10.5984V20.1797L15 25.1072Z" fill="white"/>
</svg>
