<svg width="24" height="24" viewBox="0 0 24 24" fill="none" xmlns="http://www.w3.org/2000/svg">
    <path d="M22.7813 9.00004C22.665 8.64127 22.4449 8.32506 22.1489 8.09142C21.8528 7.85778 21.4941 7.71723 21.1181 7.68754L15.8128 7.25911L13.7653 2.30817C13.6214 1.95826 13.3768 1.659 13.0625 1.4484C12.7482 1.2378 12.3783 1.12537 12 1.12537C11.6217 1.12537 11.2519 1.2378 10.9375 1.4484C10.6232 1.659 10.3786 1.95826 10.2347 2.30817L8.18907 7.26004L2.88376 7.68754C2.50709 7.71861 2.14801 7.86031 1.85163 8.09484C1.55526 8.32937 1.33482 8.64627 1.21801 9.00571C1.1012 9.36516 1.09324 9.75111 1.19512 10.1151C1.297 10.479 1.50418 10.8047 1.79063 11.0513L5.83876 14.5425L4.60126 19.7644C4.511 20.1326 4.53235 20.5193 4.66259 20.8753C4.79283 21.2313 5.02608 21.5404 5.33261 21.7634C5.63915 21.9864 6.00512 22.1131 6.38392 22.1275C6.76272 22.1418 7.1372 22.043 7.45969 21.8438L12 19.0491L16.5403 21.8438C16.8627 22.0417 17.2366 22.1395 17.6146 22.1248C17.9926 22.1101 18.3577 21.9835 18.6638 21.7612C18.9699 21.5388 19.2031 21.2307 19.3339 20.8757C19.4647 20.5208 19.4873 20.135 19.3988 19.7672L18.1613 14.5454L22.2094 11.0541C22.4975 10.807 22.7057 10.4797 22.8076 10.114C22.9094 9.74829 22.9002 9.36055 22.7813 9.00004ZM16.1747 13.2844C16.0186 13.419 15.9025 13.5939 15.839 13.7899C15.7755 13.986 15.7671 14.1958 15.8147 14.3963L17.0231 19.5L12.5897 16.7738C12.4124 16.6647 12.2082 16.6069 12 16.6069C11.7918 16.6069 11.5876 16.6647 11.4103 16.7738L6.97688 19.5L8.18532 14.4C8.23292 14.1995 8.22451 13.9898 8.16103 13.7937C8.09754 13.5976 7.98141 13.4227 7.82532 13.2882L3.86251 9.86629L9.05626 9.44723C9.26294 9.43063 9.46101 9.35722 9.6286 9.23513C9.79619 9.11304 9.92678 8.947 10.0059 8.75536L12 3.92723L13.9941 8.75536C14.0732 8.947 14.2038 9.11304 14.3714 9.23513C14.539 9.35722 14.7371 9.43063 14.9438 9.44723L20.1375 9.86629L16.1747 13.2844Z" fill="white"/>
</svg>
