<svg width="27" height="26" viewBox="0 0 27 26" fill="none" xmlns="http://www.w3.org/2000/svg">
    <path d="M10 11C10 10.6022 10.158 10.2206 10.4393 9.93934C10.7206 9.65804 11.1022 9.5 11.5 9.5H15.5C15.8978 9.5 16.2794 9.65804 16.5607 9.93934C16.842 10.2206 17 10.6022 17 11C17 11.3978 16.842 11.7794 16.5607 12.0607C16.2794 12.342 15.8978 12.5 15.5 12.5H11.5C11.1022 12.5 10.7206 12.342 10.4393 12.0607C10.158 11.7794 10 11.3978 10 11ZM27 7V23C27 23.663 26.7366 24.2989 26.2678 24.7678C25.7989 25.2366 25.163 25.5 24.5 25.5H2.5C1.83696 25.5 1.20107 25.2366 0.732233 24.7678C0.263392 24.2989 0 23.663 0 23V7C0 6.33696 0.263392 5.70107 0.732233 5.23223C1.20107 4.76339 1.83696 4.5 2.5 4.5H7V3.5C7 2.57174 7.36875 1.6815 8.02513 1.02513C8.6815 0.368749 9.57174 0 10.5 0H16.5C17.4283 0 18.3185 0.368749 18.9749 1.02513C19.6313 1.6815 20 2.57174 20 3.5V4.5H24.5C25.163 4.5 25.7989 4.76339 26.2678 5.23223C26.7366 5.70107 27 6.33696 27 7ZM10 4.5H17V3.5C17 3.36739 16.9473 3.24021 16.8536 3.14645C16.7598 3.05268 16.6326 3 16.5 3H10.5C10.3674 3 10.2402 3.05268 10.1464 3.14645C10.0527 3.24021 10 3.36739 10 3.5V4.5ZM3 7.5V11.9038C6.23694 13.6098 9.841 14.5009 13.5 14.5C17.1591 14.5008 20.7633 13.6093 24 11.9025V7.5H3ZM24 22.5V15.2425C20.6996 16.7309 17.1205 17.5004 13.5 17.5C9.87951 17.5006 6.3003 16.7311 3 15.2425V22.5H24Z" fill="white"/>
</svg>
