<svg width="32" height="32" viewBox="0 0 32 32" fill="none" xmlns="http://www.w3.org/2000/svg">
    <rect x="1" y="1" width="30" height="30" rx="15" stroke="#5BB349" stroke-width="2"/>
    <path d="M9.20696 10.796L19.2841 20.876H12.2529C11.9545 20.876 11.6684 20.9945 11.4574 21.2055C11.2464 21.4165 11.1279 21.7026 11.1279 22.001C11.1279 22.2994 11.2464 22.5855 11.4574 22.7965C11.6684 23.0075 11.9545 23.126 12.2529 23.126H22.0029C22.3013 23.126 22.5874 23.0075 22.7984 22.7965C23.0094 22.5855 23.1279 22.2994 23.1279 22.001V12.251C23.1279 11.9526 23.0094 11.6665 22.7984 11.4555C22.5874 11.2445 22.3013 11.126 22.0029 11.126C21.7045 11.126 21.4184 11.2445 21.2074 11.4555C20.9964 11.6665 20.8779 11.9526 20.8779 12.251V19.2823L10.7988 9.20508C10.6942 9.10043 10.57 9.01742 10.4332 8.96078C10.2965 8.90415 10.15 8.875 10.002 8.875C9.85397 8.875 9.70742 8.90415 9.5707 8.96078C9.43397 9.01742 9.30973 9.10043 9.20509 9.20508C9.10044 9.30972 9.01743 9.43396 8.96079 9.57069C8.90416 9.70741 8.87501 9.85396 8.87501 10.002C8.87501 10.1499 8.90416 10.2965 8.96079 10.4332C9.01743 10.5699 9.10044 10.6942 9.20509 10.7988L9.20696 10.796Z" fill="#5BB349"/>
</svg>
