<svg width="24" height="24" viewBox="0 0 24 24" fill="none" xmlns="http://www.w3.org/2000/svg">
    <path d="M17.5594 14.912C17.4049 15.6764 16.9912 16.3639 16.3882 16.8583C15.7851 17.3526 15.0298 17.6235 14.25 17.6252C12.1622 17.6229 10.1604 16.7925 8.68405 15.3162C7.20768 13.8398 6.37728 11.8381 6.37505 9.75016C6.37666 8.97038 6.64757 8.21509 7.14196 7.61206C7.63634 7.00903 8.32385 6.59527 9.08817 6.44079C9.3298 6.39297 9.58044 6.42578 9.80162 6.53417C10.0228 6.64255 10.2023 6.82053 10.3125 7.04079L11.3888 9.19704C11.4771 9.37417 11.517 9.57145 11.5047 9.76898C11.4924 9.9665 11.4281 10.1573 11.3185 10.322L10.5197 11.5202C10.931 12.3777 11.6225 13.0692 12.48 13.4805L13.6782 12.6817C13.8429 12.5721 14.0337 12.5079 14.2312 12.4955C14.4288 12.4832 14.626 12.5231 14.8032 12.6114L16.9594 13.6877C17.1797 13.7979 17.3577 13.9774 17.466 14.1986C17.5744 14.4198 17.6072 14.6704 17.5594 14.912ZM22.125 12.0002C22.1254 13.7345 21.6803 15.4399 20.8323 16.9528C19.9843 18.4657 18.7619 19.7354 17.2823 20.6402C15.8027 21.545 14.1155 22.0546 12.3824 22.1201C10.6493 22.1856 8.92841 21.8048 7.38474 21.0142L4.34442 22.0314C4.01345 22.143 3.6579 22.1598 3.31784 22.0802C2.97779 22.0005 2.66675 21.8274 2.41978 21.5804C2.17281 21.3335 1.99973 21.0224 1.92005 20.6824C1.84037 20.3423 1.85725 19.9868 1.9688 19.6558L2.98224 16.6155C2.28632 15.2523 1.9085 13.7491 1.87718 12.2189C1.84585 10.6887 2.16185 9.17134 2.8014 7.78084C3.44095 6.39035 4.38741 5.16294 5.56962 4.1909C6.75184 3.21886 8.13904 2.52749 9.62693 2.16876C11.1148 1.81003 12.6647 1.79328 14.16 2.11978C15.6553 2.44628 17.0571 3.10752 18.26 4.05379C19.4629 5.00006 20.4357 6.20673 21.1052 7.58308C21.7746 8.95943 22.1233 10.4696 22.125 12.0002ZM19.875 12.0002C19.8746 10.7922 19.5963 9.6006 19.0616 8.51745C18.5269 7.43429 17.7503 6.48865 16.7917 5.75368C15.8331 5.01871 14.7182 4.5141 13.5334 4.2789C12.3486 4.0437 11.1256 4.0842 9.95894 4.39728C8.79229 4.71037 7.7133 5.28763 6.80543 6.08442C5.89757 6.88121 5.18517 7.87617 4.72334 8.99233C4.26152 10.1085 4.06264 11.3159 4.14211 12.5212C4.22157 13.7265 4.57725 14.8974 5.18161 15.9433C5.26149 16.0812 5.31116 16.2345 5.32732 16.3931C5.34348 16.5516 5.32577 16.7118 5.27536 16.863L4.34442 19.6558L7.13724 18.7248C7.25212 18.6866 7.3724 18.667 7.49349 18.6667C7.69107 18.6671 7.88508 18.7195 8.05599 18.8186C9.2532 19.5113 10.6117 19.8765 11.9949 19.8774C13.3781 19.8783 14.7371 19.5149 15.9353 18.8237C17.1334 18.1325 18.1283 17.138 18.8199 15.9401C19.5115 14.7422 19.8755 13.3833 19.875 12.0002Z" fill="white"/>
</svg>
